<?xml version="1.0" encoding="utf-8"?>
<!-- Generator: Adobe Illustrator 16.0.0, SVG Export Plug-In . SVG Version: 6.00 Build 0)  -->
<!DOCTYPE svg PUBLIC "-//W3C//DTD SVG 1.1//EN" "http://www.w3.org/Graphics/SVG/1.1/DTD/svg11.dtd">
<svg version="1.1" id="圖層_3" xmlns="http://www.w3.org/2000/svg" xmlns:xlink="http://www.w3.org/1999/xlink" x="0px" y="0px"
	 width="344px" height="72px" viewBox="0 0 344 72" enable-background="new 0 0 344 72" xml:space="preserve">
<path fill="#FFFFFF" d="M80.404,55.976"/>
<g>
	<path fill="#FFFFFF" d="M74.815,55.868c-0.381,0.191-1.155,0.381-2.144,0.381c-2.535-0.002-4.237-1.682-4.236-4.586
		c0.001-3.096,1.955-4.785,4.479-4.784c1.047,0.001,1.69,0.228,1.94,0.357l-0.298,1.13c-0.38-0.177-0.916-0.333-1.594-0.333
		c-1.762,0-3.072,1.188-3.073,3.558c-0.001,2.237,1.165,3.489,3.047,3.489c0.619,0.001,1.25-0.129,1.643-0.32L74.815,55.868z"/>
	<path fill="#FFFFFF" d="M82.784,56.122h-1.382l0.001-3.834c0-0.94-0.32-1.727-1.249-1.727c-0.679,0-1.406,0.559-1.406,1.549
		l-0.002,4.01h-1.381l0.004-9.549l1.381,0.001l-0.001,3.882h0.023c0.429-0.68,1.167-1.038,1.881-1.038
		c0.988,0.002,2.131,0.669,2.13,2.742L82.784,56.122z"/>
	<path fill="#FFFFFF" d="M90.574,55.861c-0.464,0.216-1.192,0.394-2.084,0.394c-1.976,0-3.119-1.322-3.118-3.324
		c0-1.952,1.097-3.513,2.955-3.513c1.845,0.002,2.582,1.538,2.582,3.158c0,0.226-0.012,0.416-0.036,0.583h-4.167
		c0.035,1.477,0.951,2.036,1.987,2.036c0.726,0,1.227-0.131,1.655-0.31L90.574,55.861z M89.599,52.172
		c0.012-0.786-0.309-1.762-1.369-1.763c-1.012,0-1.44,0.999-1.512,1.762L89.599,52.172z"/>
	<path fill="#FFFFFF" d="M98.909,56.126h-1.381l0.001-3.845c0-0.927-0.309-1.713-1.249-1.715c-0.679,0-1.406,0.561-1.406,1.607
		l-0.001,3.952h-1.381l0.002-4.714c0-0.727-0.024-1.285-0.047-1.846l1.202,0.001l0.072,0.977h0.035c0.31-0.558,1-1.119,1.989-1.118
		c1.024,0,2.166,0.666,2.166,2.69L98.909,56.126z"/>
	<path fill="#FFFFFF" d="M107.381,49.572c-0.037,0.463-0.061,1.013-0.061,1.894l-0.001,3.737c0,1.309-0.109,3.727-3.216,3.725
		c-0.762,0-1.559-0.168-2.071-0.476l0.31-1.073c0.404,0.238,1.035,0.464,1.773,0.464c1.072,0.002,1.834-0.595,1.834-2.083v-0.631
		h-0.023c-0.333,0.561-0.977,0.965-1.822,0.963c-1.547,0-2.605-1.369-2.605-3.202c0.001-2.227,1.347-3.464,2.775-3.463
		c0.976,0,1.523,0.502,1.797,1.024h0.023l0.061-0.882L107.381,49.572z M105.939,52.108c0-0.87-0.571-1.585-1.416-1.585
		c-0.952-0.002-1.62,0.904-1.62,2.311c0,1.285,0.582,2.201,1.606,2.202c0.714,0,1.429-0.548,1.43-1.643V52.108z"/>
	<path fill="#FFFFFF" d="M120.387,47.029l-2.824,5.261l-0.001,3.845h-1.381l0.001-3.81l-2.676-5.298h1.559l1.071,2.381
		c0.297,0.666,0.558,1.238,0.796,1.88h0.023c0.227-0.604,0.501-1.214,0.798-1.892l1.084-2.367H120.387z"/>
	<path fill="#FFFFFF" d="M127.875,54.259c0,0.738,0.035,1.357,0.058,1.881l-1.214-0.001l-0.071-0.952h-0.036
		c-0.274,0.453-0.917,1.083-1.977,1.083c-1.131,0-2.119-0.703-2.118-2.799l0.002-3.905h1.382l-0.001,3.68
		c0,1.13,0.32,1.88,1.225,1.881c0.631,0,1.37-0.501,1.37-1.487l0.002-4.061l1.381,0.002L127.875,54.259z"/>
	<path fill="#FFFFFF" d="M138.798,51.811c0.679,0.249,1.059,0.894,1.273,1.857c0.274,1.19,0.5,2.132,0.678,2.477l-1.429-0.001
		c-0.13-0.262-0.344-1.059-0.57-2.179c-0.249-1.214-0.689-1.68-1.654-1.68h-0.833l-0.001,3.857l-1.37-0.001l0.004-8.988
		c0.583-0.105,1.392-0.189,2.214-0.189c1.19,0.001,2.023,0.217,2.595,0.728c0.476,0.417,0.726,1.048,0.726,1.788
		c0,1.167-0.715,1.964-1.633,2.31L138.798,51.811L138.798,51.811z M137.192,51.25c1.142,0.001,1.857-0.653,1.857-1.63
		c0-1.179-0.833-1.582-1.82-1.582c-0.464,0-0.797,0.033-0.964,0.081l-0.001,3.131H137.192z"/>
	<path fill="#FFFFFF" d="M147.955,55.886c-0.464,0.214-1.191,0.394-2.083,0.394c-1.976-0.002-3.119-1.324-3.118-3.325
		c0-1.951,1.097-3.512,2.954-3.511c1.845,0,2.582,1.537,2.582,3.157c0,0.226-0.011,0.416-0.036,0.584l-4.167-0.002
		c0.035,1.476,0.951,2.035,1.987,2.036c0.726,0,1.226-0.131,1.655-0.311L147.955,55.886z M146.981,52.195
		c0.013-0.785-0.309-1.763-1.368-1.763c-1.013,0-1.441,0.999-1.513,1.763H146.981z"/>
	<path fill="#FFFFFF" d="M154.14,50.829c-0.262-0.166-0.714-0.37-1.25-0.371c-0.619,0-0.952,0.358-0.953,0.797
		c0,0.454,0.298,0.68,1.095,1.024c1.083,0.441,1.655,1.037,1.655,1.989c0,1.262-0.966,2.013-2.453,2.012
		c-0.69,0-1.345-0.18-1.785-0.442l0.31-1.024c0.333,0.203,0.94,0.441,1.5,0.441c0.738,0,1.095-0.356,1.096-0.857
		c0-0.5-0.273-0.772-1.059-1.107c-1.167-0.464-1.678-1.12-1.678-1.882c0-1.095,0.894-1.964,2.275-1.964
		c0.643,0.001,1.202,0.181,1.56,0.382L154.14,50.829z"/>
	<path fill="#FFFFFF" d="M157.978,48.58c-0.477,0-0.797-0.358-0.797-0.799c0-0.464,0.334-0.81,0.81-0.81
		c0.476,0,0.797,0.347,0.797,0.812C158.787,48.225,158.477,48.58,157.978,48.58z M158.664,56.152l-1.381-0.001l0.003-6.571
		l1.381,0.002L158.664,56.152z"/>
	<path fill="#FFFFFF" d="M167.167,54.403c0,0.598,0.023,1.3,0.046,1.751l-1.215-0.001l-0.07-1.024h-0.037
		c-0.345,0.667-1.06,1.156-1.988,1.156c-1.488-0.001-2.618-1.323-2.617-3.348c0.001-2.226,1.275-3.488,2.739-3.486
		c0.845,0,1.452,0.38,1.737,0.882h0.024l0.001-3.728l1.381,0.001L167.167,54.403z M165.787,52.248c0-1.07-0.678-1.701-1.451-1.701
		c-1.06-0.001-1.644,1.046-1.645,2.346c0,1.285,0.57,2.273,1.618,2.274c0.892,0,1.477-0.785,1.478-1.701V52.248z"/>
	<path fill="#FFFFFF" d="M174.979,55.896c-0.464,0.215-1.189,0.393-2.084,0.393c-1.976-0.001-3.118-1.323-3.117-3.322
		c0-1.954,1.097-3.514,2.953-3.514c1.845,0.002,2.584,1.538,2.584,3.158c0,0.226-0.014,0.416-0.037,0.584l-4.167-0.002
		c0.035,1.476,0.951,2.035,1.987,2.035c0.728,0,1.226-0.129,1.655-0.309L174.979,55.896z M174.004,52.205
		c0.014-0.786-0.308-1.762-1.368-1.762c-1.012,0-1.442,0.998-1.513,1.76L174.004,52.205z"/>
	<path fill="#FFFFFF" d="M183.316,56.161h-1.381v-3.844c0.003-0.928-0.308-1.717-1.249-1.717c-0.679,0-1.404,0.56-1.404,1.608
		l-0.002,3.952h-1.381l0.002-4.713c0-0.728-0.023-1.286-0.048-1.847h1.202l0.072,0.978h0.033c0.312-0.559,1.001-1.119,1.987-1.119
		c1.026,0,2.168,0.667,2.168,2.691V56.161z"/>
	<path fill="#FFFFFF" d="M186.584,48.413l1.371-0.428l-0.002,1.618h1.561v1.037h-1.561v3.322c-0.002,0.81,0.247,1.201,0.831,1.201
		c0.274,0,0.441-0.036,0.605-0.083l0.049,1.06c-0.239,0.095-0.605,0.155-1.071,0.155c-0.55,0-1.012-0.18-1.299-0.502
		c-0.332-0.356-0.489-0.906-0.487-1.763v-3.391h-0.927v-1.038h0.927L186.584,48.413z"/>
	<path fill="#FFFFFF" d="M192.647,48.595c-0.476-0.001-0.798-0.358-0.798-0.799c0-0.464,0.332-0.811,0.81-0.811
		c0.476,0,0.799,0.347,0.799,0.812C193.458,48.237,193.148,48.595,192.647,48.595z M193.335,56.165h-1.382l0.003-6.57h1.381
		L193.335,56.165z"/>
	<path fill="#FFFFFF" d="M200.956,54.608c0,0.561,0.012,1.131,0.095,1.562l-1.25-0.002l-0.096-0.762h-0.035
		c-0.369,0.512-1.012,0.895-1.832,0.895c-1.228-0.002-1.929-0.906-1.929-1.92c0.001-1.631,1.417-2.44,3.668-2.44
		c0.001-0.486,0.001-1.464-1.319-1.464c-0.584,0-1.18,0.178-1.597,0.452l-0.287-0.916c0.465-0.298,1.238-0.549,2.12-0.549
		c1.928,0.003,2.464,1.275,2.463,2.669L200.956,54.608z M199.61,52.871c-1.082,0-2.333,0.199-2.334,1.367
		c0,0.727,0.454,1.048,0.966,1.048c0.749,0,1.368-0.571,1.368-1.334V52.871L199.61,52.871z"/>
	<path fill="#FFFFFF" d="M205.328,56.17h-1.381l0.004-9.549l1.38,0.002L205.328,56.17z"/>
	<path fill="#FFFFFF" d="M217.297,56.174l-4.965-0.002l0.002-9.104l4.762,0.002v1.152h-3.38l-0.001,2.63l3.19,0.001l-0.001,1.143
		l-3.19-0.001l-0.001,3.024l3.584,0.002V56.174L217.297,56.174z"/>
	<path fill="#FFFFFF" d="M225.408,49.618c-0.023,0.55-0.047,1.143-0.047,1.894l-0.005,7.321h-1.381l0.002-3.55h-0.035
		c-0.333,0.598-0.989,1.025-1.894,1.025c-1.417-0.002-2.571-1.288-2.569-3.322c0-2.394,1.429-3.513,2.761-3.513
		c0.846,0,1.453,0.382,1.787,1.013h0.034l0.049-0.869L225.408,49.618L225.408,49.618z M223.979,52.238
		c0-1.022-0.689-1.655-1.439-1.656c-1.06,0-1.655,0.977-1.655,2.333c-0.002,1.273,0.521,2.286,1.604,2.286
		c1.025,0,1.488-0.952,1.49-1.666V52.238z"/>
	<path fill="#FFFFFF" d="M233.696,54.302c0,0.737,0.034,1.356,0.06,1.88l-1.214-0.002l-0.07-0.951h-0.036
		c-0.273,0.453-0.916,1.084-1.976,1.082c-1.131,0-2.119-0.703-2.118-2.799l0.001-3.905l1.383,0.001l-0.003,3.679
		c0,1.131,0.321,1.882,1.226,1.882c0.632,0.001,1.369-0.502,1.37-1.487l0.001-4.061l1.381,0.001L233.696,54.302z"/>
	<path fill="#FFFFFF" d="M237.416,48.613c-0.475,0-0.797-0.358-0.797-0.799c0-0.464,0.333-0.811,0.811-0.811
		c0.477,0,0.797,0.347,0.797,0.811C238.227,48.255,237.917,48.613,237.416,48.613z M238.104,56.183h-1.381l0.002-6.57h1.381
		L238.104,56.183z"/>
	<path fill="#FFFFFF" d="M242.396,50.626c0.451-0.738,1.165-1.143,2.082-1.142c1.478,0,2.584,1.312,2.583,3.346
		c-0.001,2.406-1.392,3.488-2.774,3.488c-0.785-0.001-1.428-0.372-1.751-0.906h-0.022l-0.001,3.428l-1.382-0.001l0.003-7.093
		c0.002-0.858-0.022-1.536-0.046-2.121h1.214l0.072,1.001H242.396L242.396,50.626z M242.512,53.542
		c-0.001,1.179,0.809,1.68,1.488,1.681c1.07,0,1.654-0.989,1.655-2.346c0-1.252-0.559-2.285-1.618-2.285
		c-0.821-0.001-1.524,0.772-1.524,1.738L242.512,53.542L242.512,53.542z"/>
	<path fill="#FFFFFF" d="M258.67,56.191h-1.357l0.001-3.75c0.001-1.096-0.356-1.821-1.189-1.822c-0.63,0-1.273,0.571-1.273,1.524
		l-0.002,4.047l-1.357-0.001l0.002-3.953c0-0.915-0.344-1.618-1.142-1.618c-0.619,0-1.321,0.558-1.322,1.594l-0.001,3.977h-1.357
		l0.002-4.714c0-0.737-0.023-1.286-0.047-1.845h1.189l0.072,0.964h0.035c0.32-0.548,0.916-1.106,1.916-1.106
		c0.833,0,1.466,0.464,1.738,1.204h0.024c0.439-0.728,1.082-1.203,2.022-1.203c0.978,0.001,2.049,0.668,2.048,2.739L258.67,56.191z"
		/>
	<path fill="#FFFFFF" d="M266.448,55.933c-0.464,0.215-1.191,0.394-2.083,0.393c-1.977,0-3.119-1.323-3.118-3.322
		c0.001-1.953,1.097-3.512,2.953-3.512c1.846,0,2.583,1.536,2.583,3.155c0,0.227-0.013,0.417-0.035,0.585l-4.168-0.001
		c0.035,1.476,0.951,2.034,1.988,2.034c0.726,0.001,1.226-0.129,1.655-0.308L266.448,55.933z M265.474,52.242
		c0.013-0.786-0.31-1.762-1.368-1.764c-1.012,0-1.44,1-1.515,1.762L265.474,52.242z"/>
	<path fill="#FFFFFF" d="M274.785,56.197h-1.381v-3.845c0.002-0.929-0.307-1.715-1.248-1.716c-0.679,0-1.404,0.56-1.406,1.607v3.953
		l-1.382-0.001l0.002-4.713c0-0.727-0.023-1.286-0.048-1.846h1.203l0.07,0.978h0.036c0.309-0.56,0.999-1.12,1.987-1.117
		c1.024,0,2.166,0.666,2.166,2.69V56.197z"/>
	<path fill="#FFFFFF" d="M278.054,48.45l1.369-0.429v1.618h1.559v1.038l-1.559-0.002l-0.003,3.322c0,0.81,0.25,1.203,0.833,1.203
		c0.275,0,0.44-0.035,0.607-0.083l0.049,1.06c-0.239,0.096-0.609,0.154-1.073,0.154c-0.549,0-1.012-0.179-1.298-0.5
		c-0.333-0.357-0.488-0.907-0.486-1.762v-3.393l-0.929-0.002V49.64h0.929L278.054,48.45z"/>
	<path fill="#FFFFFF" d="M293.307,55.956c-0.382,0.189-1.156,0.38-2.144,0.38c-2.536-0.001-4.238-1.682-4.236-4.586
		c0.002-3.095,1.954-4.785,4.479-4.784c1.048,0,1.689,0.228,1.94,0.359l-0.299,1.129c-0.381-0.179-0.915-0.334-1.594-0.334
		c-1.762-0.001-3.072,1.19-3.074,3.56c0,2.237,1.167,3.487,3.047,3.488c0.619,0,1.251-0.131,1.645-0.321L293.307,55.956z"/>
	<path fill="#FFFFFF" d="M301.512,52.876c-0.001,2.451-1.595,3.464-3.071,3.464c-1.702,0-3-1.253-2.998-3.371
		c0-2.215,1.356-3.465,3.096-3.463C300.335,49.506,301.513,50.866,301.512,52.876z M298.489,50.541
		c-1.178-0.001-1.631,1.261-1.631,2.392c-0.002,1.287,0.605,2.369,1.617,2.37c1,0,1.619-1.083,1.62-2.392
		C300.096,51.827,299.644,50.541,298.489,50.541z"/>
	<path fill="#FFFFFF" d="M303.944,55.401c0-0.549,0.38-0.952,0.893-0.952c0.524,0,0.88,0.392,0.88,0.952
		c0,0.547-0.344,0.94-0.892,0.94C304.276,56.342,303.944,55.925,303.944,55.401z"/>
	<path fill="#FFFFFF" d="M309.946,54.366c-0.345,1.19-0.943,2.667-1.394,3.417l-0.951,0.095c0.333-0.904,0.689-2.334,0.846-3.381
		L309.946,54.366z"/>
	<path fill="#FFFFFF" d="M321.377,56.215h-4.892l0.003-9.106h1.381l-0.003,7.939l3.511,0.001V56.215L321.377,56.215z"/>
	<path fill="#FFFFFF" d="M324.064,48.468l1.369-0.428l-0.002,1.618l1.559,0.001v1.037h-1.559v3.32
		c-0.003,0.811,0.248,1.203,0.83,1.203c0.275,0,0.439-0.036,0.607-0.083l0.048,1.06c-0.238,0.096-0.605,0.155-1.071,0.155
		c-0.548,0-1.012-0.18-1.299-0.5c-0.332-0.357-0.487-0.907-0.487-1.764l0.002-3.392h-0.929v-1.039h0.929L324.064,48.468z"/>
	<path fill="#FFFFFF" d="M334.906,54.472c0,0.597,0.023,1.298,0.048,1.749h-1.215l-0.071-1.023h-0.035
		c-0.345,0.666-1.06,1.154-1.988,1.154c-1.487,0-2.619-1.322-2.617-3.346c0.001-2.227,1.275-3.487,2.739-3.487
		c0.844,0.001,1.45,0.38,1.738,0.883h0.023l0.001-3.728l1.381,0.002L334.906,54.472z M333.526,52.317
		c0.002-1.071-0.677-1.702-1.451-1.702c-1.059-0.002-1.646,1.046-1.646,2.344c0,1.286,0.572,2.275,1.619,2.275
		c0.894,0,1.478-0.785,1.478-1.701V52.317L333.526,52.317z"/>
	<path fill="#FFFFFF" d="M337.732,55.414c0-0.548,0.382-0.951,0.893-0.951c0.523,0,0.882,0.393,0.882,0.951
		c0,0.549-0.347,0.942-0.894,0.942C338.065,56.356,337.732,55.938,337.732,55.414z"/>
</g>
<g>
	<path fill="#FFFFFF" d="M69.58,36.879c1.987-2.829,3.134-6.831,3.38-11.976l-3.54-0.001v-2.314l5.418,0.002
		c0.353,0,0.518,0.137,0.518,0.491c0,0.081,0,0.081-0.028,0.135c-0.192,4.737-0.44,10.807-4.197,15.814l-2.314-1.227L69.58,36.879z
		 M83.49,36.069c0,0.218,0.082,1.252,0.082,1.497c-0.001,2.15-0.52,4.409-3.759,4.408c-1.415,0-2.885-0.6-4.626-1.58l0.654-2.286
		c1.416,0.953,2.395,1.524,3.756,1.525c0.38,0,0.68-0.082,0.871-0.217c0.463-0.354,0.681-1.226,0.682-2.505
		c0-0.272,0-0.545-0.026-0.844l-6.588-0.002l0.001-2.314l6.342,0.002l-0.299-2.258l-4.982-0.002l0.001-2.314l4.627,0.001
		l-0.407-2.042l-3.702-0.001l0.001-2.314l3.211,0.002l-0.788-3.077l2.477,0.001l4.574-2.121l-12.685-0.005v-2.205l15.353,0.007
		l1.713,2.477l-8.167,3.808l0.217,1.117l4.328,0.001l-0.001,2.313l-3.92-0.001l0.299,2.042l4.274,0.002l-0.001,2.314l-3.975-0.001
		l0.245,2.258l4.792,0.002l-0.001,2.314L83.49,36.069z M89.24,22.651c0.054,1.66,0.19,3.185,0.352,4.573
		c1.199-1.796,2.098-3.32,2.643-4.599l2.097,0.98c-0.954,1.933-2.37,4.138-4.195,6.614c0.571,2.396,1.985,5.228,4.161,8.467
		l-2.396,0.952l-0.925-1.607c-2.177-3.921-3.509-9.01-3.86-15.3L89.24,22.651z"/>
	<path fill="#FFFFFF" d="M104.757,22.766c-0.979-0.926-1.904-1.878-2.749-2.859c-0.816,1.116-2.206,2.368-4.057,3.729l-1.986-1.361
		c2.614-1.633,4.302-3.157,5.037-4.572l2.124,0.055l-0.164,0.409l0.028-0.028c1.115,1.117,2.285,2.152,3.537,3.104L104.757,22.766z
		 M100.315,38.989l0.003-8.139l-3.675-0.001l0.001-2.097l3.675,0.001l0.001-2.667l-2.504-0.001v-2.123l7.376,0.003v2.123
		l-2.777-0.001l-0.001,2.667l3.185,0.002l-0.001,2.097l-3.185-0.001l-0.003,7.567c1.17-0.381,2.151-0.763,2.996-1.115l0.924,1.987
		c-2.232,0.95-5.445,1.821-9.556,2.636l-0.761-2.149L100.315,38.989z M97.565,37.654c-0.109-1.171-0.434-2.777-0.925-4.766
		l2.07-0.353l0.924,4.927L97.565,37.654z M103.281,36.268c0.491-1.606,0.818-3.049,0.928-4.247l1.905,0.492
		c-0.273,1.66-0.6,3.129-0.927,4.355L103.281,36.268z M112.754,39.346l0.004-9.499l-5.254-0.002v-2.205l5.254,0.002l0.003-7.676
		l-5.58-0.002l0.001-2.204l13.42,0.005l-0.001,2.205l-5.526-0.002l-0.003,7.676l5.118,0.002v2.205l-5.118-0.002l-0.004,9.5
		l6.18,0.002v2.205l-14.7-0.007v-2.205L112.754,39.346z M119.125,38.043c-1.033-2.097-1.959-3.702-2.83-4.819l1.852-1.197
		c0.979,1.253,1.986,2.914,2.937,4.928L119.125,38.043z"/>
	<path fill="#FFFFFF" d="M126.372,27.62l-1.009,1.524l-2.177-0.953c2.506-3.455,4.059-7.293,4.687-11.403l2.286,0.381
		c-0.437,2.097-0.927,3.919-1.472,5.526l-0.008,19.135l-2.314-0.001L126.372,27.62z M137.691,38.866l0.002-6.94l-7.241-0.003
		l0.001-2.314l7.24,0.003l0.003-6.506l-7.649-0.003l0.001-2.314l7.976,0.003c-0.843-1.089-1.551-1.934-2.204-2.533l1.742-1.524
		c0.898,0.817,1.851,1.907,2.83,3.323l-0.926,0.734l8.901,0.003l-0.001,2.314l-8.249-0.003l-0.002,6.506l7.705,0.003l-0.001,2.314
		l-7.705-0.003l-0.002,6.94l8.438,0.004l-0.001,2.315l-18.837-0.009l0.001-2.314L137.691,38.866z"/>
	<path fill="#FFFFFF" d="M160.016,33.16l-8.602,0.568l-0.353-2.423l8.956-0.596l0.001-3.211l-5.499,0.406l-0.543-2.505
		c7.159-0.132,12.85-0.893,17.041-2.279l0.761,2.423c-1.794,0.49-4.954,1.06-9.337,1.712l-0.001,3.321l12.605-0.866l0.161,2.423
		l-12.767,0.866l-0.002,4.981c0,0.845,0.681,1.335,1.36,1.389l8.411,0.004c0.218,0,0.464-0.08,0.708-0.272
		c0.136-0.081,0.3-1.415,0.411-3.891l2.424,0.381c-0.222,3.157-0.494,4.927-0.793,5.255c-0.572,0.625-1.171,0.95-1.717,0.95
		l-10.804-0.005c-1.144-0.054-2.423-1.307-2.423-2.451L160.016,33.16z M162.063,18.896l0.001-2.069l2.396,0.001l-0.001,2.069
		l9.363,0.003l2.096,1.063c-0.161,1.578-0.655,3.457-1.416,5.662l-2.179-0.79c0.354-1.198,0.872-2.967,0.872-3.321
		c0-0.191-0.108-0.299-0.328-0.299l-18.972-0.007c-0.135,0-0.218,0.081-0.218,0.218l-0.001,3.865l-2.314-0.001l0.002-5.962
		c0-0.272,0.164-0.436,0.463-0.436L162.063,18.896z"/>
	<path fill="#FFFFFF" d="M177.989,21.298l10.153,0.004l-0.001,2.205l-10.153-0.004L177.989,21.298z M180.839,40.246v1.171
		l-2.205-0.002l0.004-9.173c0-0.436,0.244-0.68,0.682-0.68l7.513,0.003c0.465,0,0.709,0.245,0.709,0.681l-0.005,7.27
		c0,0.488-0.244,0.733-0.735,0.733L180.839,40.246z M179.157,28.159l7.704,0.003l-0.001,2.097l-7.705-0.003L179.157,28.159z
		 M179.157,24.756l7.705,0.003l-0.001,2.097l-7.704-0.004V24.756z M179.271,17.788l7.704,0.003l-0.002,2.205l-7.703-0.003
		L179.271,17.788z M185.334,34.015c0-0.245-0.135-0.354-0.38-0.354l-3.757-0.001c-0.244,0-0.354,0.109-0.354,0.354l-0.002,4.137
		l4.029,0.002c0.3,0,0.464-0.163,0.464-0.463V34.015z M192.881,19.726c-0.163,0-0.272,0.109-0.272,0.299l-0.001,1.007
		c-0.001,2.722-1.119,4.817-3.323,6.205l-1.551-1.689l0.925-0.625c1.226-1.034,1.825-2.558,1.826-4.599v-2.231l0.138-0.328
		l0.326-0.135l7.649,0.003l0.327,0.109l0.161,0.354l-0.002,5.662c0,0.899,0.354,0.981,0.981,1.008c0.218,0,0.272-0.027,0.818-0.163
		c0.134-0.055,0.218-0.327,0.244-0.816l0.055-1.77l2.014,0.245l-0.191,2.995c-0.136,0.979-1.28,1.606-1.962,1.606l-1.932-0.001
		c-1.497-0.055-2.178-1.171-2.123-2.097l0.002-4.709c-0.025-0.218-0.136-0.327-0.354-0.328L192.881,19.726z M201.854,42.105
		c-2.776-0.791-5.035-1.798-6.75-2.97c-1.442,0.925-3.348,1.903-5.664,2.938l-1.387-1.987c2.178-0.764,3.975-1.605,5.309-2.504
		c-1.44-1.416-2.804-3.294-4.025-5.554l1.933-1.089c1.062,2.178,2.366,3.975,3.835,5.365c2.151-1.823,3.487-3.782,4.005-5.877
		c0-0.354-0.354-0.354-0.654-0.328l-9.091-0.003v-2.205l11.054,0.005l1.25,0.98c-0.49,3.403-2.097,6.369-4.738,8.846
		c1.495,0.926,3.537,1.687,6.096,2.179L201.854,42.105z"/>
	<path fill="#FFFFFF" d="M207.985,28.306l-0.897,1.469l-2.231-0.872c2.397-3.646,3.84-7.593,4.333-11.867l2.285,0.329
		c-0.354,2.149-0.763,4.055-1.279,5.716l-0.009,18.973h-2.206L207.985,28.306z M216.398,23.165l0.002-2.15l-4.056-0.001l0.001-2.097
		l4.056,0.001l0.001-1.878h2.205l-0.002,1.878l4.709,0.002l0.003-1.878l2.204,0.001l-0.002,1.878l4.192,0.001l-0.001,2.097
		l-4.192-0.001l-0.001,2.151l4.683,0.001v2.097l-15.952-0.007c-0.191,0-0.271,0.082-0.271,0.273l-0.003,7.758
		c-0.003,3.184-0.495,6.014-1.422,8.383l-2.039-0.708c0.843-2.151,1.307-4.927,1.364-8.303l0.002-8.901
		c0-0.408,0.164-0.599,0.571-0.598L216.398,23.165z M221.212,37.24l-4.055-0.002l-0.002,4.602l-2.096-0.001l0.006-14.591
		c0-0.354,0.161-0.518,0.488-0.518l13.419,0.005c0.329,0,0.519,0.163,0.519,0.517l-0.005,12.223c0,0.627-0.139,2.395-2.996,2.395
		c-0.571,0-1.226-0.057-1.96-0.192l-0.107-2.34c0.816,0.243,1.47,0.354,1.877,0.354c0.816,0,1.088-0.681,1.088-1.063l0.002-1.388
		l-4.057-0.001l-0.002,4.52l-2.123-0.002L221.212,37.24z M221.214,35.226l0.001-2.287l-4.056-0.001l-0.001,2.287L221.214,35.226z
		 M221.215,31.034l0.001-2.314l-3.895-0.001c-0.108,0-0.161,0.054-0.161,0.163l-0.001,2.151L221.215,31.034z M218.604,23.165
		l4.709,0.002l0.002-2.151l-4.709-0.002L218.604,23.165z M223.338,32.939l-0.001,2.287l4.055,0.001l0.002-2.287L223.338,32.939z
		 M223.339,28.721l-0.001,2.314l4.056,0.001v-2.151c0-0.108-0.054-0.163-0.19-0.163L223.339,28.721z"/>
	<path fill="#FFFFFF" d="M240.351,36.867l-0.002,5.09l-2.315-0.002l0.006-14.672l-0.651,0.49c-1.199,0.871-2.451,1.687-3.813,2.394
		l-1.497-2.042c3.675-1.822,6.698-4.162,9.067-6.992l-8.601-0.003v-2.314l10.234,0.005l1.307-2.123l2.069,1.281l-0.518,0.843
		l11.515,0.004v2.314l-13.068-0.005c-0.869,1.17-1.823,2.313-2.832,3.32l13.177,0.005c0.409,0,0.599,0.191,0.599,0.572
		l-0.007,14.238c0,0.925-0.328,2.777-3.758,2.775c-1.062,0-2.341-0.193-3.811-0.52l0.001-2.585c1.552,0.464,2.749,0.682,3.564,0.682
		c1.606,0.002,1.689-1.089,1.689-1.278v-1.471L240.351,36.867z M240.352,34.553l12.358,0.005l0.001-2.695l-12.358-0.005
		L240.352,34.553z M240.354,29.544l12.358,0.005l0.001-2.585c0-0.135-0.083-0.19-0.218-0.19l-11.978-0.005
		c-0.138,0-0.163,0.055-0.163,0.191L240.354,29.544z"/>
	<path fill="#FFFFFF" d="M266.733,25.744c-0.054,0.191-0.108,0.327-0.108,0.489c0,0.136,0.055,0.272,0.137,0.381
		c0.625,0.817,2.394,3.185,2.393,6.043c-0.001,1.66-0.846,3.838-3.785,3.837c-0.789,0-1.66-0.164-2.585-0.464l-0.003,5.853
		l-2.314-0.001l0.01-23.846l0.084-0.245l0.244-0.082l6.614,0.002l1.604,1.063L266.733,25.744z M266.164,20.462
		c0.027-0.082,0.057-0.163,0.057-0.245c0-0.299-0.274-0.299-0.491-0.299l-2.749-0.001l-0.138,0.054l-0.054,0.135L262.782,33.5
		c0.733,0.49,1.471,0.736,2.205,0.736c0.573,0,1.225-0.082,1.498-0.598c0.217-0.381,0.354-0.789,0.354-1.252
		c0-1.279-0.897-3.213-2.611-5.771v-0.327L266.164,20.462z M283.99,32.556c-1.199,1.116-2.723,2.259-4.602,3.456
		c1.061,1.47,2.91,2.914,5.442,4.358l-1.798,1.715c-3.185-2.099-6.967-4.794-8.679-12.445h-2.012l-0.006,9.364l3.975-1.007
		l0.517,2.259c-2.531,0.845-5.718,1.469-9.447,1.849l-0.407-2.316l3.049-0.351l0.008-21.098c0.001-0.436,0.245-0.68,0.709-0.679
		l11.651,0.004c0.463,0,0.708,0.245,0.707,0.681l-0.005,10.562c0,0.518-0.245,0.735-0.735,0.735l-5.688-0.002
		c0.298,1.552,0.816,3.021,1.494,4.383c1.907-1.224,3.351-2.34,4.413-3.319L283.99,32.556z M280.782,24.878l-8.438-0.003
		l-0.002,2.45l8.058,0.003c0.244,0,0.38-0.109,0.38-0.353L280.782,24.878z M272.345,22.561l8.438,0.003l0.002-2.042
		c0-0.354-0.192-0.545-0.599-0.545l-7.269-0.003c-0.379,0-0.57,0.191-0.57,0.545L272.345,22.561z"/>
	<path fill="#FFFFFF" d="M286.743,28.964c2.425-2.45,4.168-5.252,5.201-8.41l2.287,0.817c-1.443,3.893-3.215,6.912-5.311,8.981
		L286.743,28.964z M307.917,39.342l-20.062,1.654l-0.652-2.368l3.074-0.218c2.287-3.782,4.387-7.919,6.211-12.463l2.231,0.98
		c-1.145,3.021-2.996,6.804-5.557,11.294l13.338-1.001c-1.577-2.45-3.073-4.492-4.436-6.127l1.987-1.333
		c3.266,4.302,5.741,7.95,7.483,10.945l-2.069,1.171L307.917,39.342z M295.05,17.561l10.208,0.004
		c0.301-0.026,0.518,0.11,0.598,0.463c0.948,5.527,3.02,8.223,6.229,10.945l-2.178,1.36c-2.886-3.023-4.107-4.629-5.739-10.102
		c-0.028-0.245-0.11-0.354-0.246-0.354l-8.872-0.004V17.561z"/>
	<path fill="#FFFFFF" d="M315.333,17.569l22.049,0.008c0.546,0.028,0.762,0.328,0.734,0.817l-0.009,20.252
		c0,2.15-1.58,3.43-4.493,3.428c-1.77,0-3.512-0.192-5.199-0.601l-0.353-2.532c2.206,0.52,3.948,0.792,5.172,0.794
		c1.198,0,2.451-0.165,2.453-1.933l0.006-17.53c0-0.245-0.109-0.381-0.381-0.381l-19.981-0.008L315.333,17.569z M316.038,22.251
		l16.932,0.006l-0.001,2.314l-16.933-0.006L316.038,22.251z M332.12,36.767c0,0.245-0.109,0.353-0.354,0.353l-14.619-0.005
		c-0.217,0-0.327-0.109-0.327-0.354l0.004-9.5c0-0.217,0.11-0.327,0.328-0.327l14.618,0.005c0.244,0,0.354,0.109,0.354,0.326
		L332.12,36.767z M329.673,29.253l-10.427-0.004c-0.08,0-0.107,0.026-0.107,0.109l-0.002,5.309c0,0.081,0.025,0.135,0.107,0.135
		l10.427,0.005c0.081,0,0.137-0.055,0.137-0.136l0.002-5.309L329.673,29.253z"/>
</g>
<path fill="#FCFDFD" d="M58.237,35.514c-0.005,15.025-12.194,27.207-27.221,27.199C15.99,62.704,3.812,50.516,3.816,35.49
	C3.82,20.462,16.011,8.281,31.039,8.288C46.063,8.295,58.245,20.485,58.237,35.514z"/>
<path fill="#FCFDFD" d="M40.096,11.507c-0.006,5.057-4.106,9.151-9.158,9.151c-5.054-0.003-9.153-4.104-9.149-9.158
	c-0.001-5.054,4.104-9.155,9.157-9.151C35.999,2.351,40.096,6.453,40.096,11.507z"/>
<circle fill="#FCFDFD" cx="30.921" cy="59.746" r="9.155"/>
<path fill="#FCFDFD" stroke="#009FD1" stroke-width="5" stroke-miterlimit="10" d="M55.387,35.593
	c-0.006,13.507-10.961,24.453-24.465,24.451c-13.508-0.01-24.456-10.962-24.448-24.47c0.004-13.511,10.959-24.456,24.464-24.448
	C44.447,11.133,55.393,22.085,55.387,35.593z"/>
<path fill="#FCFDFD" stroke="#009FD1" stroke-width="5" stroke-miterlimit="10" d="M39.147,35.587
	c-0.003,4.537-3.685,8.21-8.219,8.213c-4.537-0.006-8.211-3.686-8.21-8.219c0.001-4.536,3.679-8.211,8.215-8.208
	C35.471,27.371,39.143,31.051,39.147,35.587z"/>
<path fill="#FCFDFD" stroke="#009FD1" stroke-width="5" stroke-miterlimit="10" d="M37.234,11.129
	c-0.001,3.421-2.776,6.193-6.199,6.193c-3.422-0.001-6.195-2.777-6.197-6.198c0.003-3.421,2.779-6.198,6.2-6.196
	C34.464,4.931,37.238,7.706,37.234,11.129z"/>
<path fill="#FCFDFD" stroke="#009FD1" stroke-width="5" stroke-miterlimit="10" d="M37.215,60.295c0,3.422-2.773,6.189-6.2,6.189
	c-3.421,0-6.197-2.772-6.191-6.197c-0.001-3.423,2.776-6.192,6.199-6.192C34.443,54.099,37.218,56.87,37.215,60.295z"/>
</svg>
