<?xml version="1.0" encoding="utf-8"?>
<!-- Generator: Adobe Illustrator 16.0.0, SVG Export Plug-In . SVG Version: 6.00 Build 0)  -->
<!DOCTYPE svg PUBLIC "-//W3C//DTD SVG 1.1//EN" "http://www.w3.org/Graphics/SVG/1.1/DTD/svg11.dtd">
<svg version="1.1" id="圖層_2" xmlns="http://www.w3.org/2000/svg" xmlns:xlink="http://www.w3.org/1999/xlink" x="0px" y="0px"
	 width="320px" height="64px" viewBox="0 0 320 64" enable-background="new 0 0 320 64" xml:space="preserve">
<path fill="none" d="M74.357,48.921"/>
<g>
	<path fill="#040000" d="M69.085,48.819c-0.36,0.18-1.09,0.359-2.022,0.358c-2.392-0.001-3.997-1.585-3.996-4.325
		c0.001-2.92,1.844-4.515,4.225-4.514c0.988,0.001,1.594,0.215,1.83,0.338l-0.281,1.066c-0.359-0.168-0.864-0.314-1.504-0.315
		c-1.662,0-2.898,1.122-2.899,3.357c-0.001,2.111,1.099,3.291,2.874,3.291c0.584,0.001,1.179-0.122,1.55-0.302L69.085,48.819z"/>
	<path fill="#040000" d="M76.602,49.058h-1.303l0.001-3.616c0-0.887-0.302-1.629-1.178-1.63c-0.64,0-1.326,0.528-1.326,1.461
		l-0.002,3.784l-1.303-0.001l0.004-9.007l1.303,0.001l-0.001,3.661h0.022c0.404-0.64,1.101-0.978,1.775-0.978
		c0.932,0.001,2.01,0.63,2.009,2.585L76.602,49.058z"/>
	<path fill="#040000" d="M83.951,48.813c-0.438,0.202-1.124,0.371-1.966,0.37c-1.864,0-2.942-1.248-2.941-3.135
		c0-1.842,1.035-3.313,2.787-3.313c1.741,0.001,2.436,1.45,2.436,2.978c0,0.213-0.011,0.393-0.034,0.551l-3.931-0.001
		c0.033,1.393,0.897,1.92,1.875,1.921c0.685,0,1.157-0.123,1.561-0.292L83.951,48.813z M83.031,45.332
		c0.012-0.741-0.291-1.662-1.291-1.663c-0.955,0-1.359,0.943-1.427,1.662L83.031,45.332z"/>
	<path fill="#040000" d="M91.815,49.063h-1.303l0.001-3.628c0-0.875-0.291-1.617-1.178-1.618c-0.64,0-1.326,0.528-1.326,1.517
		l-0.001,3.729l-1.303-0.001l0.002-4.447c0-0.685-0.022-1.213-0.044-1.741l1.134,0.001l0.067,0.922h0.034
		c0.292-0.528,0.944-1.057,1.876-1.056c0.966,0,2.043,0.629,2.043,2.539L91.815,49.063z"/>
	<path fill="#040000" d="M99.807,42.879c-0.034,0.438-0.057,0.955-0.057,1.786l-0.001,3.526c0,1.235-0.103,3.516-3.034,3.514
		c-0.719,0-1.471-0.158-1.954-0.449l0.292-1.012c0.382,0.225,0.977,0.438,1.673,0.438c1.011,0.001,1.73-0.561,1.73-1.965v-0.595
		h-0.022c-0.314,0.528-0.921,0.909-1.719,0.908c-1.46,0-2.458-1.292-2.458-3.021c0.001-2.101,1.271-3.268,2.618-3.267
		c0.921,0,1.437,0.473,1.695,0.967h0.022l0.057-0.832L99.807,42.879z M98.447,45.271c0-0.82-0.539-1.494-1.336-1.494
		c-0.898-0.001-1.528,0.853-1.528,2.179c0,1.213,0.549,2.077,1.515,2.078c0.674,0,1.348-0.517,1.349-1.55L98.447,45.271z"/>
	<path fill="#040000" d="M112.077,40.481l-2.664,4.962l-0.001,3.628l-1.303-0.001l0.001-3.594l-2.525-4.998l1.471,0.001l1.01,2.246
		c0.28,0.629,0.527,1.168,0.751,1.773h0.022c0.214-0.571,0.472-1.144,0.753-1.784l1.022-2.234L112.077,40.481z"/>
	<path fill="#040000" d="M119.142,47.301c0,0.696,0.033,1.28,0.055,1.774l-1.146-0.001l-0.067-0.898h-0.034
		c-0.258,0.427-0.865,1.022-1.865,1.021c-1.067,0-1.999-0.663-1.998-2.64l0.002-3.684h1.303l-0.001,3.47
		c0,1.067,0.302,1.775,1.156,1.776c0.595,0,1.292-0.473,1.292-1.404l0.002-3.83l1.303,0.001L119.142,47.301z"/>
	<path fill="#040000" d="M129.447,44.991c0.64,0.235,0.999,0.843,1.201,1.752c0.258,1.123,0.471,2.012,0.639,2.337l-1.348-0.001
		c-0.123-0.247-0.325-0.999-0.538-2.056c-0.235-1.145-0.651-1.583-1.561-1.584h-0.786l-0.001,3.639l-1.292-0.001l0.003-8.479
		c0.55-0.1,1.314-0.179,2.089-0.179c1.123,0.001,1.909,0.204,2.448,0.687c0.449,0.393,0.685,0.988,0.685,1.685
		c0,1.101-0.675,1.853-1.54,2.179V44.991z M127.931,44.462c1.078,0.001,1.752-0.616,1.752-1.537c0-1.112-0.785-1.493-1.717-1.494
		c-0.438,0-0.752,0.033-0.91,0.078l-0.001,2.953H127.931z"/>
	<path fill="#040000" d="M138.085,48.835c-0.438,0.202-1.124,0.371-1.966,0.371c-1.864-0.001-2.942-1.249-2.941-3.136
		c0-1.842,1.035-3.313,2.787-3.312c1.741,0,2.436,1.45,2.436,2.978c0,0.213-0.011,0.393-0.034,0.551l-3.931-0.002
		c0.033,1.393,0.897,1.92,1.875,1.921c0.685,0,1.157-0.123,1.561-0.292L138.085,48.835z M137.166,45.354
		c0.012-0.741-0.291-1.662-1.291-1.663c-0.955,0-1.359,0.943-1.427,1.662L137.166,45.354z"/>
	<path fill="#040000" d="M143.92,44.064c-0.247-0.156-0.674-0.348-1.179-0.349c-0.584,0-0.898,0.337-0.899,0.752
		c0,0.428,0.281,0.641,1.033,0.967c1.022,0.416,1.561,0.978,1.561,1.876c0,1.19-0.911,1.898-2.314,1.897
		c-0.651,0-1.269-0.169-1.684-0.417l0.292-0.966c0.314,0.191,0.887,0.416,1.415,0.416c0.696,0,1.033-0.336,1.034-0.809
		c0-0.471-0.258-0.729-0.999-1.044c-1.101-0.438-1.583-1.057-1.583-1.775c0-1.033,0.843-1.853,2.146-1.853
		c0.606,0.001,1.134,0.17,1.471,0.36L143.92,44.064z"/>
	<path fill="#040000" d="M147.54,41.943c-0.449,0-0.752-0.337-0.752-0.753c0-0.438,0.315-0.764,0.764-0.764s0.752,0.327,0.752,0.765
		C148.304,41.607,148.011,41.943,147.54,41.943z M148.188,49.087l-1.303-0.001l0.003-6.199l1.303,0.001L148.188,49.087z"/>
	<path fill="#040000" d="M156.209,47.438c0,0.563,0.022,1.225,0.044,1.651l-1.146-0.001l-0.067-0.966h-0.034
		c-0.326,0.629-1,1.09-1.876,1.09c-1.404-0.001-2.47-1.248-2.469-3.157c0.001-2.1,1.203-3.291,2.584-3.29
		c0.797,0,1.37,0.359,1.639,0.832h0.022l0.001-3.516l1.303,0.001L156.209,47.438z M154.907,45.405c0-1.011-0.639-1.606-1.369-1.606
		c-1-0.001-1.55,0.987-1.551,2.212c0,1.213,0.538,2.145,1.526,2.146c0.842,0,1.393-0.74,1.394-1.605V45.405z"/>
	<path fill="#040000" d="M163.58,48.846c-0.438,0.202-1.123,0.37-1.966,0.37c-1.865-0.001-2.942-1.248-2.941-3.135
		c0-1.842,1.035-3.313,2.786-3.313c1.74,0.001,2.438,1.45,2.437,2.978c0,0.213-0.012,0.393-0.034,0.551l-3.931-0.002
		c0.033,1.393,0.897,1.921,1.874,1.921c0.686,0,1.157-0.122,1.562-0.291L163.58,48.846z M162.659,45.363
		c0.013-0.741-0.29-1.662-1.29-1.662c-0.955,0-1.36,0.942-1.427,1.661L162.659,45.363z"/>
	<path fill="#040000" d="M171.445,49.096h-1.303l0.001-3.628c0.001-0.875-0.292-1.618-1.179-1.618c-0.641,0-1.325,0.528-1.326,1.517
		l-0.001,3.729l-1.303-0.001l0.002-4.447c0-0.685-0.022-1.213-0.045-1.741h1.134l0.068,0.922h0.033
		c0.292-0.527,0.943-1.056,1.875-1.056c0.967,0.001,2.045,0.63,2.044,2.54L171.445,49.096z"/>
	<path fill="#040000" d="M174.528,41.785l1.292-0.403l-0.001,1.527h1.472v0.978h-1.472l-0.001,3.134
		c-0.001,0.764,0.234,1.134,0.785,1.134c0.258,0,0.416-0.034,0.572-0.079l0.045,1c-0.225,0.09-0.572,0.146-1.01,0.146
		c-0.518,0-0.955-0.169-1.225-0.473c-0.314-0.337-0.461-0.854-0.46-1.663l0.001-3.2h-0.875v-0.978h0.875L174.528,41.785z"/>
	<path fill="#040000" d="M180.248,41.957c-0.449-0.001-0.753-0.338-0.753-0.754c0-0.438,0.314-0.764,0.764-0.763
		c0.449,0,0.753,0.326,0.753,0.764C181.012,41.62,180.72,41.957,180.248,41.957z M180.896,49.1l-1.303-0.001l0.002-6.199
		l1.303,0.001L180.896,49.1z"/>
	<path fill="#040000" d="M188.086,47.631c0,0.528,0.012,1.067,0.09,1.472l-1.18-0.001l-0.09-0.719h-0.033
		c-0.348,0.483-0.955,0.843-1.729,0.843c-1.157-0.001-1.819-0.854-1.819-1.81c0.001-1.539,1.337-2.303,3.46-2.302
		c0.001-0.46,0.001-1.381-1.245-1.381c-0.551,0-1.112,0.167-1.506,0.426l-0.27-0.864c0.438-0.281,1.168-0.517,2-0.517
		c1.818,0.001,2.324,1.203,2.323,2.517L188.086,47.631z M186.817,45.991c-1.021,0-2.201,0.189-2.202,1.29
		c0,0.686,0.428,0.989,0.91,0.989c0.707,0,1.291-0.539,1.292-1.258V45.991z"/>
	<path fill="#040000" d="M192.211,49.104l-1.303-0.001l0.003-9.007l1.303,0.001L192.211,49.104z"/>
	<path fill="#040000" d="M203.502,49.108l-4.684-0.002l0.003-8.591l4.492,0.002v1.089l-3.189-0.001l-0.001,2.481l3.01,0.001
		l-0.001,1.078l-3.01-0.001l-0.001,2.854l3.381,0.001V49.108z"/>
	<path fill="#040000" d="M211.154,42.923c-0.022,0.518-0.045,1.078-0.045,1.786l-0.003,6.907h-1.303l0.001-3.348h-0.033
		c-0.314,0.563-0.933,0.966-1.786,0.966c-1.337-0.001-2.426-1.214-2.425-3.135c0.001-2.257,1.349-3.313,2.606-3.313
		c0.798,0,1.37,0.36,1.685,0.956h0.033l0.045-0.82H211.154z M209.806,45.394c0.001-0.965-0.65-1.561-1.358-1.562
		c-0.999,0-1.561,0.921-1.562,2.201c-0.001,1.201,0.493,2.156,1.515,2.156c0.967,0.001,1.404-0.897,1.405-1.571V45.394z"/>
	<path fill="#040000" d="M218.973,47.341c0,0.696,0.033,1.28,0.057,1.774l-1.146-0.001l-0.066-0.898h-0.034
		c-0.259,0.427-0.864,1.022-1.864,1.021c-1.066,0-1.999-0.664-1.998-2.641l0.001-3.684l1.303,0.001l-0.001,3.47
		c-0.001,1.067,0.303,1.775,1.156,1.775c0.595,0.001,1.291-0.472,1.292-1.403l0.001-3.83l1.303,0.001L218.973,47.341z"/>
	<path fill="#040000" d="M222.483,41.974c-0.449,0-0.752-0.337-0.752-0.753c0-0.438,0.314-0.764,0.764-0.764
		s0.752,0.326,0.752,0.764C223.247,41.637,222.955,41.974,222.483,41.974z M223.132,49.116h-1.303l0.002-6.199h1.303L223.132,49.116
		z"/>
	<path fill="#040000" d="M227.179,43.873c0.427-0.695,1.101-1.078,1.966-1.077c1.393,0,2.437,1.237,2.436,3.157
		c-0.001,2.269-1.314,3.29-2.617,3.29c-0.742-0.001-1.348-0.35-1.651-0.854h-0.022l-0.001,3.234l-1.303-0.001l0.002-6.693
		c0.001-0.809-0.021-1.449-0.044-2l1.146,0.001l0.067,0.943H227.179z M227.29,46.625c-0.001,1.111,0.763,1.584,1.403,1.585
		c1.01,0,1.561-0.933,1.562-2.213c0-1.18-0.526-2.156-1.526-2.156c-0.775-0.001-1.438,0.729-1.438,1.639V46.625z"/>
	<path fill="#040000" d="M242.533,49.124h-1.28l0.001-3.538c0.001-1.033-0.336-1.718-1.122-1.719c-0.595,0-1.202,0.539-1.203,1.438
		l-0.001,3.818l-1.279-0.001l0.001-3.729c0.001-0.864-0.325-1.527-1.077-1.527c-0.584,0-1.247,0.527-1.248,1.504l-0.001,3.751h-1.28
		l0.002-4.447c0-0.696-0.022-1.213-0.045-1.741h1.123l0.067,0.91h0.034c0.303-0.517,0.864-1.044,1.808-1.044
		c0.786,0,1.382,0.438,1.64,1.136h0.022c0.415-0.686,1.022-1.135,1.909-1.135c0.921,0.001,1.932,0.63,1.931,2.585L242.533,49.124z"
		/>
	<path fill="#040000" d="M249.871,48.88c-0.438,0.202-1.123,0.371-1.965,0.37c-1.864,0-2.942-1.248-2.941-3.135
		c0.001-1.842,1.034-3.313,2.786-3.313c1.741,0.001,2.437,1.45,2.436,2.978c0,0.213-0.011,0.393-0.033,0.551l-3.931-0.001
		c0.033,1.393,0.897,1.92,1.875,1.92c0.685,0.001,1.156-0.122,1.561-0.291L249.871,48.88z M248.952,45.398
		c0.012-0.741-0.292-1.662-1.291-1.663c-0.954,0-1.358,0.943-1.428,1.662L248.952,45.398z"/>
	<path fill="#040000" d="M257.736,49.13h-1.303l0.001-3.628c0.001-0.875-0.29-1.617-1.178-1.618c-0.64,0-1.325,0.528-1.326,1.517
		l-0.001,3.729l-1.303-0.001l0.002-4.447c0-0.685-0.022-1.213-0.045-1.741l1.135,0.001l0.066,0.922h0.034
		c0.292-0.528,0.943-1.057,1.876-1.056c0.965,0,2.043,0.629,2.042,2.539L257.736,49.13z"/>
	<path fill="#040000" d="M260.821,41.82l1.291-0.404l-0.001,1.527l1.471,0.001v0.978l-1.471-0.001l-0.001,3.134
		c-0.001,0.764,0.235,1.134,0.785,1.135c0.259,0,0.415-0.034,0.573-0.079l0.045,1c-0.225,0.09-0.573,0.146-1.012,0.146
		c-0.516,0-0.954-0.169-1.224-0.473c-0.314-0.336-0.46-0.854-0.459-1.662l0.001-3.2l-0.877-0.001v-0.978l0.877,0.001L260.821,41.82z
		"/>
	<path fill="#040000" d="M275.209,48.902c-0.359,0.179-1.09,0.358-2.021,0.358c-2.393-0.001-3.998-1.586-3.997-4.326
		c0.002-2.92,1.844-4.514,4.225-4.513c0.988,0,1.594,0.214,1.83,0.338l-0.281,1.065c-0.359-0.168-0.864-0.314-1.504-0.314
		c-1.662-0.001-2.899,1.122-2.9,3.357c0,2.111,1.101,3.29,2.874,3.291c0.584,0,1.18-0.123,1.551-0.303L275.209,48.902z"/>
	<path fill="#040000" d="M282.95,45.996c-0.001,2.313-1.505,3.268-2.897,3.268c-1.606-0.001-2.83-1.182-2.829-3.181
		c0.001-2.089,1.28-3.268,2.921-3.267C281.84,42.816,282.951,44.099,282.95,45.996z M280.1,43.794
		c-1.112-0.001-1.54,1.189-1.54,2.256c-0.001,1.213,0.571,2.235,1.526,2.236c0.943,0,1.527-1.022,1.528-2.257
		C281.614,45.007,281.188,43.794,280.1,43.794z"/>
	<path fill="#040000" d="M285.245,48.378c0-0.517,0.359-0.898,0.843-0.898c0.494,0,0.83,0.37,0.83,0.898
		c0,0.517-0.325,0.888-0.842,0.888S285.245,48.872,285.245,48.378z"/>
	<path fill="#040000" d="M290.907,47.402c-0.325,1.123-0.889,2.516-1.314,3.223l-0.898,0.09c0.314-0.854,0.651-2.201,0.798-3.189
		L290.907,47.402z"/>
	<path fill="#040000" d="M301.691,49.147l-4.615-0.001l0.003-8.591h1.303l-0.003,7.49l3.313,0.001V49.147z"/>
	<path fill="#040000" d="M304.226,41.837l1.291-0.403l-0.001,1.527l1.471,0.001v0.978l-1.471-0.001l-0.001,3.134
		c-0.001,0.764,0.235,1.134,0.785,1.134c0.259,0,0.415-0.034,0.573-0.078l0.045,1c-0.225,0.089-0.573,0.146-1.012,0.146
		c-0.516,0-0.954-0.169-1.224-0.473c-0.314-0.336-0.46-0.854-0.459-1.663l0.001-3.2h-0.877V42.96h0.877L304.226,41.837z"/>
	<path fill="#040000" d="M314.455,47.502c0,0.563,0.022,1.225,0.045,1.651l-1.146-0.001l-0.067-0.966h-0.033
		c-0.326,0.629-1,1.09-1.876,1.089c-1.403,0-2.471-1.248-2.47-3.157c0.001-2.1,1.203-3.29,2.584-3.29
		c0.797,0.001,1.37,0.36,1.64,0.833h0.022l0.001-3.516l1.303,0.001L314.455,47.502z M313.153,45.469
		c0.001-1.011-0.64-1.606-1.369-1.606c-0.999-0.001-1.551,0.987-1.551,2.212c-0.001,1.213,0.538,2.145,1.526,2.146
		c0.842,0,1.393-0.74,1.394-1.605V45.469z"/>
	<path fill="#040000" d="M317.121,48.391c0-0.517,0.359-0.898,0.842-0.898c0.494,0,0.832,0.37,0.832,0.898
		c0,0.517-0.326,0.888-0.843,0.888S317.121,48.885,317.121,48.391z"/>
</g>
<g>
	<path fill="#040000" d="M64.146,30.905c1.875-2.669,2.956-6.444,3.189-11.298l-3.339-0.001l0-2.183l5.111,0.002
		c0.333,0,0.488,0.129,0.488,0.462c0,0.077,0,0.077-0.026,0.128c-0.182,4.469-0.415,10.195-3.96,14.918l-2.183-1.156L64.146,30.905z
		 M77.269,30.141c0,0.205,0.077,1.181,0.077,1.412c-0.001,2.029-0.49,4.16-3.546,4.159c-1.335,0-2.722-0.566-4.365-1.491
		l0.617-2.157c1.335,0.899,2.259,1.438,3.543,1.439c0.359,0,0.642-0.077,0.822-0.204c0.437-0.334,0.642-1.156,0.643-2.363
		c0-0.257,0-0.514-0.025-0.796l-6.215-0.002l0.001-2.183l5.983,0.002l-0.282-2.131l-4.7-0.002l0.001-2.183l4.366,0.001l-0.384-1.926
		l-3.492-0.001l0.001-2.183l3.03,0.001l-0.744-2.902l2.337,0.001l4.315-2.001l-11.967-0.005l0-2.08l14.484,0.006l1.617,2.337
		l-7.706,3.592l0.205,1.053l4.083,0.001l-0.001,2.183l-3.698-0.001l0.282,1.926l4.032,0.002l-0.001,2.183l-3.75-0.001l0.231,2.131
		l4.52,0.002l-0.001,2.183L77.269,30.141z M82.693,17.482c0.051,1.566,0.179,3.005,0.332,4.315c1.131-1.695,1.979-3.133,2.493-4.339
		l1.978,0.925c-0.9,1.823-2.236,3.903-3.958,6.239c0.539,2.26,1.873,4.932,3.926,7.988l-2.26,0.898l-0.873-1.516
		c-2.053-3.699-3.31-8.501-3.641-14.434L82.693,17.482z"/>
	<path fill="#040000" d="M97.332,17.59c-0.924-0.873-1.796-1.772-2.593-2.697c-0.77,1.053-2.081,2.234-3.827,3.517l-1.874-1.284
		c2.466-1.54,4.058-2.978,4.752-4.313l2.003,0.052l-0.154,0.385l0.026-0.026c1.052,1.054,2.156,2.03,3.337,2.929L97.332,17.59z
		 M93.141,32.895l0.003-7.678l-3.467-0.001l0.001-1.978l3.467,0.001l0.001-2.517l-2.363-0.001l0-2.003l6.959,0.003l0,2.003
		l-2.62-0.001l-0.001,2.517l3.005,0.001l-0.001,1.978l-3.005-0.001l-0.003,7.139c1.104-0.359,2.029-0.719,2.826-1.052l0.872,1.875
		c-2.106,0.897-5.137,1.718-9.015,2.487l-0.718-2.029L93.141,32.895z M90.547,31.635c-0.103-1.104-0.41-2.619-0.872-4.495
		l1.953-0.333l0.871,4.648L90.547,31.635z M95.94,30.328c0.463-1.515,0.771-2.876,0.875-4.006l1.797,0.463
		c-0.258,1.566-0.566,2.953-0.875,4.109L95.94,30.328z M104.876,33.233l0.004-8.962l-4.957-0.002l0-2.08l4.957,0.002l0.003-7.242
		l-5.265-0.002l0.001-2.08l12.661,0.005l-0.001,2.08l-5.213-0.002l-0.003,7.242l4.828,0.002l0,2.08l-4.828-0.002l-0.004,8.963
		l5.83,0.002l0,2.08l-13.867-0.006l0-2.08L104.876,33.233z M110.886,32.003c-0.975-1.978-1.848-3.493-2.669-4.547l1.747-1.129
		c0.924,1.182,1.874,2.749,2.771,4.649L110.886,32.003z"/>
	<path fill="#040000" d="M117.723,22.17l-0.951,1.438l-2.054-0.899c2.364-3.26,3.829-6.881,4.421-10.758l2.157,0.36
		c-0.412,1.978-0.875,3.698-1.389,5.213L119.9,35.576l-2.183-0.001L117.723,22.17z M128.402,32.78l0.002-6.548l-6.831-0.003
		l0.001-2.183l6.831,0.003l0.002-6.138l-7.216-0.003l0.001-2.183l7.524,0.003c-0.795-1.028-1.463-1.824-2.079-2.389l1.644-1.438
		c0.847,0.771,1.746,1.798,2.669,3.134l-0.873,0.693l8.397,0.003l-0.001,2.183l-7.781-0.003l-0.002,6.138l7.268,0.003l-0.001,2.183
		l-7.268-0.003l-0.002,6.548l7.961,0.003l-0.001,2.184l-17.771-0.008l0.001-2.183L128.402,32.78z"/>
	<path fill="#040000" d="M149.463,27.396l-8.115,0.536l-0.333-2.286l8.449-0.562l0.001-3.03l-5.188,0.383l-0.513-2.363
		c6.754-0.125,12.122-0.842,16.077-2.15l0.718,2.286c-1.694,0.462-4.674,1-8.809,1.615l-0.001,3.133l11.891-0.817l0.153,2.286
		l-12.045,0.817l-0.002,4.7c0,0.796,0.642,1.259,1.284,1.31l7.935,0.004c0.205,0,0.437-0.077,0.668-0.257
		c0.128-0.077,0.283-1.335,0.387-3.672l2.286,0.36c-0.208,2.979-0.465,4.648-0.747,4.957c-0.54,0.591-1.105,0.898-1.619,0.898
		l-10.194-0.005c-1.079-0.051-2.285-1.233-2.285-2.313L149.463,27.396z M151.395,13.94l0.001-1.952l2.26,0.001l-0.001,1.952
		l8.834,0.003l1.977,1.002c-0.154,1.489-0.618,3.261-1.337,5.341l-2.055-0.745c0.334-1.13,0.823-2.799,0.823-3.133
		c0-0.18-0.103-0.282-0.309-0.282L143.69,16.12c-0.128,0-0.206,0.077-0.206,0.206l-0.001,3.646l-2.183-0.001l0.002-5.624
		c0-0.257,0.154-0.411,0.437-0.411L151.395,13.94z"/>
	<path fill="#040000" d="M166.419,16.206l9.579,0.004l-0.001,2.08l-9.579-0.004L166.419,16.206z M169.108,34.081l-0.001,1.104
		l-2.08-0.001l0.004-8.654c0-0.411,0.231-0.642,0.643-0.642l7.088,0.003c0.437,0,0.667,0.231,0.667,0.642l-0.003,6.857
		c0,0.462-0.23,0.693-0.693,0.693L169.108,34.081z M167.521,22.678l7.268,0.003l-0.001,1.978l-7.268-0.003L167.521,22.678z
		 M167.522,19.468l7.268,0.003l-0.001,1.978l-7.268-0.003L167.522,19.468z M167.628,12.894l7.268,0.003l-0.001,2.08l-7.268-0.003
		L167.628,12.894z M173.348,28.202c0-0.231-0.128-0.334-0.359-0.334l-3.544-0.001c-0.23,0-0.334,0.103-0.334,0.334l-0.001,3.903
		l3.801,0.001c0.283,0,0.437-0.153,0.437-0.436L173.348,28.202z M180.468,14.722c-0.154,0-0.257,0.103-0.257,0.282l-0.001,0.95
		c-0.001,2.568-1.056,4.545-3.136,5.854l-1.463-1.593l0.874-0.59c1.155-0.976,1.721-2.413,1.722-4.339v-2.105l0.13-0.309
		l0.308-0.128l7.217,0.003l0.308,0.103l0.153,0.334l-0.002,5.341c0,0.848,0.334,0.925,0.925,0.951c0.205,0,0.257-0.026,0.771-0.153
		c0.128-0.052,0.205-0.309,0.231-0.771l0.052-1.669l1.9,0.231l-0.181,2.825c-0.129,0.924-1.208,1.515-1.85,1.515l-1.823-0.001
		c-1.413-0.052-2.055-1.105-2.003-1.978l0.002-4.443c-0.025-0.205-0.128-0.308-0.333-0.309L180.468,14.722z M188.934,35.835
		c-2.62-0.746-4.75-1.697-6.368-2.802c-1.361,0.873-3.159,1.796-5.343,2.771l-1.309-1.875c2.055-0.719,3.75-1.514,5.009-2.361
		c-1.361-1.336-2.645-3.108-3.799-5.24l1.823-1.027c1.002,2.055,2.233,3.75,3.619,5.061c2.029-1.72,3.289-3.568,3.778-5.545
		c0-0.334-0.334-0.334-0.617-0.309l-8.577-0.003l0.001-2.08l10.427,0.004l1.18,0.925c-0.463,3.21-1.979,6.009-4.471,8.345
		c1.411,0.874,3.337,1.592,5.751,2.056L188.934,35.835z"/>
	<path fill="#040000" d="M194.718,22.817l-0.847,1.386l-2.106-0.822c2.262-3.44,3.624-7.163,4.089-11.195l2.156,0.31
		c-0.334,2.028-0.721,3.826-1.208,5.392l-0.008,17.899h-2.081L194.718,22.817z M202.655,17.967l0.001-2.029l-3.826-0.001
		l0.001-1.978l3.826,0.001l0.001-1.772l2.08,0l-0.001,1.772l4.443,0.002l0.001-1.772l2.08,0.001l-0.001,1.772l3.954,0.001
		l-0.001,1.978l-3.954-0.001l-0.001,2.029l4.417,0.001v1.978l-15.049-0.006c-0.18,0-0.257,0.077-0.257,0.257l-0.003,7.319
		c-0.002,3.004-0.466,5.674-1.34,7.909l-1.925-0.668c0.796-2.029,1.233-4.648,1.287-7.833l0.003-8.397
		c0-0.385,0.154-0.565,0.539-0.564L202.655,17.967z M207.196,31.245l-3.826-0.001l-0.002,4.34l-1.978-0.001l0.006-13.765
		c0-0.334,0.153-0.488,0.462-0.488l12.66,0.005c0.309,0,0.488,0.154,0.488,0.488l-0.005,11.531c0,0.591-0.13,2.26-2.826,2.259
		c-0.539,0-1.155-0.052-1.849-0.181l-0.102-2.208c0.771,0.23,1.387,0.334,1.771,0.334c0.771,0,1.027-0.642,1.027-1.001l0.001-1.31
		l-3.826-0.001l-0.002,4.264l-2.003-0.001L207.196,31.245z M207.197,29.345l0.001-2.157l-3.826-0.001l-0.001,2.157L207.197,29.345z
		 M207.198,25.39l0.001-2.183l-3.673-0.001c-0.103,0-0.153,0.051-0.153,0.154l-0.001,2.029L207.198,25.39z M204.735,17.967
		l4.443,0.002l0.001-2.029l-4.443-0.002L204.735,17.967z M209.201,27.188l-0.001,2.157l3.826,0.001l0.001-2.157L209.201,27.188z
		 M209.202,23.208l-0.001,2.183l3.826,0.001l0.001-2.029c0-0.103-0.051-0.154-0.18-0.154L209.202,23.208z"/>
	<path fill="#040000" d="M225.251,30.893l-0.002,4.802l-2.184-0.001l0.006-13.842l-0.616,0.462
		c-1.131,0.821-2.313,1.591-3.596,2.259l-1.412-1.927c3.467-1.719,6.318-3.927,8.554-6.596l-8.115-0.003l0.001-2.183l9.656,0.004
		l1.233-2.002l1.951,1.208l-0.488,0.795l10.863,0.004l-0.001,2.183l-12.327-0.005c-0.821,1.104-1.722,2.182-2.672,3.132l12.43,0.005
		c0.386,0,0.565,0.18,0.565,0.54l-0.006,13.431c0,0.873-0.31,2.62-3.545,2.618c-1.002,0-2.209-0.181-3.596-0.489l0.001-2.439
		c1.464,0.438,2.594,0.643,3.364,0.643c1.515,0.002,1.593-1.026,1.593-1.206v-1.387L225.251,30.893z M225.252,28.71l11.658,0.005
		l0.001-2.542l-11.658-0.005L225.252,28.71z M225.254,23.985l11.658,0.005l0.001-2.439c0-0.128-0.077-0.18-0.205-0.18l-11.3-0.005
		c-0.128,0-0.153,0.052-0.153,0.18L225.254,23.985z"/>
	<path fill="#040000" d="M250.141,20.4c-0.051,0.18-0.103,0.308-0.103,0.462c0,0.128,0.052,0.256,0.129,0.359
		c0.59,0.771,2.259,3.005,2.258,5.702c-0.001,1.566-0.798,3.621-3.571,3.62c-0.745,0-1.567-0.155-2.439-0.438l-0.003,5.521
		l-2.183-0.001l0.009-22.496l0.078-0.231l0.231-0.077l6.24,0.002l1.514,1.002L250.141,20.4z M249.604,15.417
		c0.025-0.077,0.052-0.154,0.052-0.231c0-0.282-0.257-0.282-0.463-0.282l-2.594-0.001l-0.128,0.051l-0.052,0.128l-0.006,12.635
		c0.693,0.462,1.387,0.694,2.08,0.694c0.54,0,1.156-0.077,1.413-0.564c0.206-0.359,0.335-0.744,0.335-1.181
		c0-1.207-0.847-3.031-2.464-5.445v-0.308L249.604,15.417z M266.421,26.826c-1.131,1.053-2.569,2.131-4.342,3.26
		c1.001,1.387,2.746,2.749,5.135,4.111l-1.696,1.617c-3.004-1.979-6.572-4.522-8.188-11.74l-1.899,0l-0.004,8.834l3.75-0.949
		l0.487,2.131c-2.389,0.796-5.395,1.385-8.913,1.743l-0.384-2.184l2.876-0.332l0.008-19.903c0.001-0.411,0.232-0.642,0.669-0.641
		l10.991,0.004c0.437,0,0.668,0.231,0.667,0.642l-0.004,9.964c0,0.488-0.231,0.693-0.693,0.693l-5.367-0.002
		c0.281,1.464,0.77,2.851,1.41,4.135c1.799-1.154,3.16-2.207,4.162-3.131L266.421,26.826z M263.394,19.583l-7.961-0.003
		l-0.001,2.311l7.601,0.003c0.231,0,0.36-0.103,0.36-0.333L263.394,19.583z M255.434,17.397l7.961,0.003l0.001-1.926
		c0-0.334-0.181-0.514-0.565-0.514l-6.856-0.003c-0.359,0-0.539,0.18-0.539,0.514L255.434,17.397z"/>
	<path fill="#040000" d="M269.018,23.438c2.286-2.311,3.931-4.955,4.907-7.934l2.157,0.771c-1.361,3.672-3.032,6.521-5.011,8.473
		L269.018,23.438z M288.993,33.229l-18.927,1.559l-0.615-2.234l2.901-0.204c2.158-3.569,4.138-7.472,5.859-11.759l2.105,0.925
		c-1.079,2.85-2.827,6.419-5.242,10.656l12.583-0.945c-1.488-2.312-2.899-4.238-4.184-5.78l1.875-1.258
		c3.08,4.059,5.416,7.501,7.059,10.327l-1.952,1.103L288.993,33.229z M276.854,12.68l9.631,0.004
		c0.282-0.025,0.487,0.104,0.563,0.437c0.896,5.214,2.848,7.757,5.877,10.326l-2.055,1.283c-2.721-2.852-3.875-4.367-5.414-9.53
		c-0.026-0.231-0.104-0.334-0.231-0.334l-8.372-0.003L276.854,12.68z"/>
	<path fill="#040000" d="M295.989,12.688l20.801,0.008c0.514,0.026,0.719,0.309,0.692,0.771l-0.007,19.106
		c-0.001,2.029-1.491,3.235-4.239,3.234c-1.669-0.001-3.313-0.182-4.905-0.567l-0.333-2.388c2.081,0.489,3.725,0.746,4.88,0.747
		c1.13,0.001,2.312-0.153,2.313-1.822l0.007-16.538c0-0.231-0.104-0.359-0.36-0.359l-18.849-0.008L295.989,12.688z M296.654,17.105
		l15.974,0.006l-0.001,2.183l-15.974-0.006L296.654,17.105z M311.826,30.799c0,0.231-0.103,0.333-0.334,0.333l-13.791-0.005
		c-0.205,0-0.308-0.103-0.308-0.334l0.004-8.963c0-0.205,0.103-0.308,0.308-0.308l13.791,0.005c0.231,0,0.334,0.103,0.334,0.308
		L311.826,30.799z M309.518,23.71l-9.836-0.004c-0.077,0-0.103,0.025-0.103,0.103l-0.002,5.008c0,0.077,0.025,0.128,0.103,0.128
		l9.836,0.004c0.077,0,0.128-0.051,0.128-0.128l0.002-5.008L309.518,23.71z"/>
</g>
<path fill="#FCFDFD" d="M52.03,31.428c-0.005,13.784-11.187,24.959-24.973,24.953C13.273,56.373,2.1,45.192,2.104,31.406
	S13.292,6.445,27.078,6.451C40.861,6.458,52.037,17.641,52.03,31.428z"/>
<path fill="#FCFDFD" d="M35.387,9.405c-0.005,4.639-3.766,8.395-8.401,8.395c-4.637-0.003-8.397-3.765-8.394-8.401
	C18.591,4.762,22.358,1,26.993,1.004C31.629,1.005,35.387,4.768,35.387,9.405z"/>
<circle fill="#FCFDFD" cx="26.97" cy="53.658" r="8.398"/>
<path fill="#FCFDFD" stroke="#009FD1" stroke-width="5" stroke-miterlimit="10" d="M49.415,31.501
	C49.409,43.893,39.36,53.933,26.971,53.931C14.578,53.923,4.535,43.875,4.542,31.484C4.546,19.089,14.596,9.048,26.986,9.055
	C39.379,9.061,49.421,19.109,49.415,31.501z"/>
<path fill="#FCFDFD" stroke="#009FD1" stroke-width="5" stroke-miterlimit="10" d="M34.517,31.495
	c-0.003,4.162-3.381,7.532-7.54,7.534c-4.162-0.004-7.533-3.38-7.532-7.539c0.001-4.162,3.375-7.534,7.536-7.53
	C31.144,23.958,34.513,27.334,34.517,31.495z"/>
<path fill="#FCFDFD" stroke="#009FD1" stroke-width="5" stroke-miterlimit="10" d="M32.762,9.058
	c-0.001,3.139-2.547,5.682-5.687,5.682c-3.139-0.001-5.683-2.548-5.685-5.687c0.003-3.138,2.55-5.686,5.688-5.684
	C30.22,3.371,32.765,5.917,32.762,9.058z"/>
<path fill="#FCFDFD" stroke="#009FD1" stroke-width="5" stroke-miterlimit="10" d="M32.744,54.162c0,3.139-2.545,5.679-5.688,5.679
	c-3.139,0-5.685-2.544-5.68-5.687c-0.001-3.138,2.547-5.679,5.687-5.679C30.201,48.478,32.747,51.021,32.744,54.162z"/>
</svg>
